<?xml version="1.0" standalone="no"?>
<!DOCTYPE svg PUBLIC "-//W3C//DTD SVG 20010904//EN"
 "http://www.w3.org/TR/2001/REC-SVG-20010904/DTD/svg10.dtd">
<svg version="1.0" xmlns="http://www.w3.org/2000/svg"
 width="260.000000pt" height="260.000000pt" viewBox="0 0 260.000000 260.000000"
 preserveAspectRatio="xMidYMid meet">
<metadata>
Created by potrace 1.11, written by Peter Selinger 2001-2013
</metadata>
<g transform="translate(0.000000,260.000000) scale(0.100000,-0.100000)"
fill="#000000" stroke="none">
<path d="M0 1300 l0 -1300 1300 0 1300 0 0 1300 0 1300 -1300 0 -1300 0 0
-1300z m1030 145 c0 -52 2 -95 4 -95 2 0 17 7 32 15 70 37 152 5 186 -72 24
-55 22 -148 -6 -206 -37 -76 -125 -107 -191 -68 -43 25 -45 25 -45 6 0 -11
-12 -15 -45 -15 l-45 0 0 265 0 265 55 0 55 0 0 -95z m648 32 c23 -14 54 -48
69 -74 25 -44 28 -57 28 -143 0 -83 -3 -102 -26 -145 -35 -69 -89 -105 -166
-112 -149 -14 -243 81 -243 246 0 91 14 139 53 187 45 54 98 75 178 72 52 -3
75 -9 107 -31z m-1178 -22 l0 -45 -70 0 -70 0 0 -200 0 -200 -55 0 -55 0 0
200 0 200 -70 0 -70 0 0 45 0 45 195 0 195 0 0 -45z m1900 -35 l0 -50 45 0 45
0 0 -45 0 -45 -45 0 -45 0 0 -76 c0 -94 10 -114 54 -114 31 0 34 -3 41 -36 8
-45 -3 -54 -68 -54 -104 0 -137 45 -137 190 0 89 0 90 -25 90 -23 0 -25 4 -25
45 0 43 1 45 30 45 27 0 30 3 30 34 0 57 8 66 56 66 l44 0 0 -50z m-1644 -59
c52 -32 64 -72 64 -220 l0 -131 -44 0 c-30 0 -46 5 -50 15 -5 13 -11 13 -43
-5 -59 -31 -108 -27 -149 14 -46 46 -48 104 -6 146 28 28 113 60 159 60 27 0
29 12 7 34 -19 20 -64 20 -109 2 -35 -15 -35 -15 -51 15 -21 41 -14 54 38 72
62 22 146 21 184 -2z m1214 -107 c0 -128 8 -154 47 -154 54 0 63 21 63 152 l0
118 55 0 55 0 0 -180 0 -180 -44 0 c-36 0 -46 4 -51 20 -6 19 -7 19 -43 -5
-43 -29 -106 -33 -141 -9 -41 29 -51 72 -51 219 l0 135 55 0 55 0 0 -116z"/>
<path d="M1052 1274 c-19 -13 -22 -24 -22 -90 0 -70 2 -75 25 -86 61 -27 111
32 99 117 -9 69 -52 94 -102 59z"/>
<path d="M1495 1386 c-58 -58 -58 -204 0 -262 34 -34 93 -33 128 2 61 61 53
238 -12 274 -35 18 -90 12 -116 -14z"/>
<path d="M661 1167 c-60 -21 -70 -77 -14 -77 40 1 63 22 63 59 0 34 -1 35 -49
18z"/>
</g>
</svg>
